<svg width="514" height="443" viewBox="0 0 514 443" fill="none" xmlns="http://www.w3.org/2000/svg">
<g opacity="0.7">
<g opacity="0.7">
<g opacity="0.7">
<g opacity="0.7">
<path opacity="0.7" d="M109.227 431.445L160.315 401.962L212.349 396.67L253.598 420.483L290.305 418.971L321.904 400.639" stroke="white" stroke-width="0.5349" stroke-miterlimit="10"/>
</g>
<g opacity="0.7">
<path opacity="0.7" d="M210.835 407.443L250.948 430.5L293.9 428.799L348.961 397.048" stroke="white" stroke-width="0.5349" stroke-miterlimit="10"/>
</g>
<path opacity="0.7" d="M324.364 401.773C323.228 402.529 321.336 402.529 320.201 401.773C319.066 401.017 319.066 400.072 320.201 399.316C321.336 398.56 323.228 398.56 324.364 399.316C325.499 400.072 325.499 401.017 324.364 401.773Z" fill="white"/>
<path opacity="0.7" d="M351.232 398.182C350.097 398.938 348.205 398.938 347.069 398.182C345.934 397.426 345.934 396.481 347.069 395.725C348.205 394.969 350.097 394.969 351.232 395.725C352.367 396.481 352.367 397.426 351.232 398.182Z" fill="white"/>
<path opacity="0.7" d="M296.17 429.933C295.035 430.689 293.143 430.689 292.008 429.933C290.872 429.177 290.872 428.232 292.008 427.476C293.143 426.72 295.035 426.72 296.17 427.476C297.306 428.232 297.306 429.366 296.17 429.933Z" fill="white"/>
<path opacity="0.7" d="M292.386 420.105C291.251 420.861 289.359 420.861 288.224 420.105C287.088 419.349 287.088 418.404 288.224 417.648C289.359 416.892 291.251 416.892 292.386 417.648C293.522 418.404 293.522 419.538 292.386 420.105Z" fill="white"/>
<path opacity="0.7" d="M214.43 397.993C213.295 398.749 211.403 398.749 210.267 397.993C209.132 397.237 209.132 396.292 210.267 395.536C211.403 394.78 213.295 394.78 214.43 395.536C215.565 396.292 215.565 397.426 214.43 397.993Z" fill="white"/>
<path opacity="0.7" d="M212.916 408.577C211.781 409.333 209.889 409.333 208.754 408.577C207.618 407.821 207.618 406.876 208.754 406.12C209.889 405.364 211.781 405.364 212.916 406.12C214.052 406.876 214.052 408.01 212.916 408.577Z" fill="white"/>
<path opacity="0.7" d="M111.308 432.578C110.173 433.334 108.281 433.334 107.146 432.578C106.01 431.823 106.01 430.878 107.146 430.122C108.281 429.366 110.173 429.366 111.308 430.122C112.633 430.878 112.633 432.012 111.308 432.578Z" fill="white"/>
</g>
<g opacity="0.7">
<g opacity="0.7">
<path opacity="0.7" d="M332.31 418.643L292.197 441.889L249.245 439.999L194.184 408.437" stroke="white" stroke-width="0.5349" stroke-miterlimit="10"/>
</g>
<path opacity="0.7" d="M191.913 409.382C193.049 410.138 194.941 410.138 196.076 409.382C197.211 408.626 197.211 407.681 196.076 406.925C194.941 406.169 193.049 406.169 191.913 406.925C190.778 407.681 190.778 408.815 191.913 409.382Z" fill="white"/>
<path opacity="0.7" d="M246.975 441.133C248.11 441.889 250.002 441.889 251.137 441.133C252.273 440.377 252.273 439.432 251.137 438.676C250.002 437.92 248.11 437.92 246.975 438.676C245.839 439.432 245.839 440.566 246.975 441.133Z" fill="white"/>
<path opacity="0.7" d="M330.229 419.966C331.365 420.722 333.257 420.722 334.392 419.966C335.527 419.21 335.527 418.265 334.392 417.509C333.257 416.753 331.365 416.753 330.229 417.509C329.094 418.076 329.094 419.21 330.229 419.966Z" fill="white"/>
</g>
<g opacity="0.7">
<g opacity="0.7">
<path opacity="0.7" d="M250.948 401.206L200.05 371.723L147.827 366.432L106.578 390.245L70.0597 388.733L38.2717 370.401" stroke="white" stroke-width="0.5349" stroke-miterlimit="10"/>
</g>
<g opacity="0.7">
<path opacity="0.7" d="M149.53 377.204L109.416 400.261L66.4646 398.56L11.4033 366.81" stroke="white" stroke-width="0.5349" stroke-miterlimit="10"/>
</g>
<path opacity="0.7" d="M35.8119 371.534C36.9472 372.29 38.8393 372.29 39.9746 371.534C41.1099 370.778 41.1099 369.834 39.9746 369.078C38.8393 368.322 36.9472 368.322 35.8119 369.078C34.6766 369.645 34.6766 370.778 35.8119 371.534Z" fill="white"/>
<path opacity="0.7" d="M8.9435 367.944C10.0788 368.7 11.9709 368.7 13.1062 367.944C14.2415 367.188 14.2415 366.243 13.1062 365.487C11.9709 364.731 10.0788 364.731 8.9435 365.487C7.80822 366.243 7.80822 367.188 8.9435 367.944Z" fill="white"/>
<path opacity="0.7" d="M64.194 399.694C65.3293 400.45 67.2214 400.45 68.3567 399.694C69.492 398.938 69.492 397.993 68.3567 397.237C67.2214 396.481 65.3293 396.481 64.194 397.237C63.0587 397.993 63.0587 398.938 64.194 399.694Z" fill="white"/>
<path opacity="0.7" d="M67.9784 389.867C69.1137 390.623 71.0058 390.623 72.1411 389.867C73.2764 389.111 73.2764 388.166 72.1411 387.41C71.0058 386.654 69.1137 386.654 67.9784 387.41C66.8431 388.166 66.8431 389.3 67.9784 389.867Z" fill="white"/>
<path opacity="0.7" d="M145.934 367.755C147.07 368.511 148.962 368.511 150.097 367.755C151.232 366.999 151.232 366.054 150.097 365.298C148.962 364.542 147.07 364.542 145.934 365.298C144.799 366.054 144.799 367.188 145.934 367.755Z" fill="white"/>
<path opacity="0.7" d="M147.448 378.338C148.583 379.094 150.476 379.094 151.611 378.338C152.746 377.582 152.746 376.637 151.611 375.881C150.476 375.125 148.583 375.125 147.448 375.881C146.124 376.637 146.124 377.771 147.448 378.338Z" fill="white"/>
<path opacity="0.7" d="M248.867 402.34C250.002 403.096 251.895 403.096 253.03 402.34C254.165 401.584 254.165 400.639 253.03 399.883C251.895 399.127 250.002 399.127 248.867 399.883C247.732 400.639 247.732 401.584 248.867 402.34Z" fill="white"/>
</g>
</g>
</g>
<g opacity="0.7">
<g opacity="0.7">
<g opacity="0.7">
<g opacity="0.7">
<path opacity="0.7" d="M510.361 278.929L470.437 302.175L427.485 300.474L372.424 268.723" stroke="white" stroke-width="0.5349" stroke-miterlimit="10"/>
</g>
<path opacity="0.7" d="M396.832 273.259C397.968 274.015 399.86 274.015 400.995 273.259C402.13 272.503 402.13 271.558 400.995 270.802C399.86 270.046 397.968 270.046 396.832 270.802C395.697 271.558 395.697 272.692 396.832 273.259Z" fill="white"/>
<path opacity="0.7" d="M369.964 269.668C371.1 270.424 372.992 270.424 374.127 269.668C375.262 268.912 375.262 267.967 374.127 267.212C372.992 266.456 371.1 266.456 369.964 267.212C368.829 267.967 368.829 269.101 369.964 269.668Z" fill="white"/>
<path opacity="0.7" d="M425.215 301.419C426.35 302.175 428.242 302.175 429.377 301.419C430.513 300.663 430.513 299.718 429.377 298.962C428.242 298.206 426.35 298.206 425.215 298.962C424.079 299.718 424.079 300.852 425.215 301.419Z" fill="white"/>
<path opacity="0.7" d="M428.999 291.78C430.134 292.536 432.026 292.536 433.162 291.78C434.297 291.024 434.297 290.079 433.162 289.323C432.026 288.567 430.134 288.567 428.999 289.323C427.864 290.079 427.864 291.024 428.999 291.78Z" fill="white"/>
<path opacity="0.7" d="M508.28 280.252C509.415 281.008 511.307 281.008 512.442 280.252C513.578 279.496 513.578 278.551 512.442 277.795C511.307 277.039 509.415 277.039 508.28 277.795C507.144 278.362 507.144 279.496 508.28 280.252Z" fill="white"/>
</g>
<g opacity="0.7">
<g opacity="0.7">
<path opacity="0.7" d="M363.152 347.344L414.051 318.05L466.274 312.569L507.523 336.382" stroke="white" stroke-width="0.5349" stroke-miterlimit="10"/>
</g>
<g opacity="0.7">
<path opacity="0.7" d="M464.571 323.342L504.685 346.588" stroke="white" stroke-width="0.5349" stroke-miterlimit="10"/>
</g>
<path opacity="0.7" d="M468.167 314.081C467.031 314.837 465.139 314.837 464.004 314.081C462.869 313.325 462.869 312.38 464.004 311.624C465.139 310.868 467.031 310.868 468.167 311.624C469.302 312.191 469.302 313.325 468.167 314.081Z" fill="white"/>
<path opacity="0.7" d="M466.653 324.665C465.518 325.421 463.625 325.421 462.49 324.665C461.355 323.909 461.355 322.964 462.49 322.208C463.625 321.452 465.518 321.452 466.653 322.208C467.788 322.964 467.788 323.909 466.653 324.665Z" fill="white"/>
<path opacity="0.7" d="M365.234 348.667C364.099 349.423 362.206 349.423 361.071 348.667C359.936 347.911 359.936 346.966 361.071 346.21C362.206 345.454 364.099 345.454 365.234 346.21C366.369 346.966 366.369 347.911 365.234 348.667Z" fill="white"/>
</g>
<g opacity="0.7">
<g opacity="0.7">
<path opacity="0.7" d="M369.019 376.637L419.917 347.344L472.14 341.863L513.389 365.676" stroke="white" stroke-width="0.5349" stroke-miterlimit="10"/>
</g>
<g opacity="0.7">
<path opacity="0.7" d="M470.626 352.635L510.74 375.881" stroke="white" stroke-width="0.5349" stroke-miterlimit="10"/>
</g>
<path opacity="0.7" d="M474.032 343.186C472.897 343.942 471.005 343.942 469.87 343.186C468.734 342.43 468.734 341.485 469.87 340.729C471.005 339.973 472.897 339.973 474.032 340.729C475.168 341.485 475.168 342.619 474.032 343.186Z" fill="white"/>
<path opacity="0.7" d="M472.708 353.958C471.572 354.714 469.68 354.714 468.545 353.958C467.41 353.202 467.41 352.257 468.545 351.501C469.68 350.745 471.572 350.745 472.708 351.501C473.843 352.068 473.843 353.202 472.708 353.958Z" fill="white"/>
<path opacity="0.7" d="M371.1 377.771C369.964 378.527 368.072 378.527 366.937 377.771C365.802 377.015 365.802 376.07 366.937 375.314C368.072 374.558 369.964 374.558 371.1 375.314C372.235 376.07 372.235 377.204 371.1 377.771Z" fill="white"/>
</g>
</g>
</g>
<g opacity="0.7">
<g opacity="0.7">
<g opacity="0.7">
<g opacity="0.7">
<path opacity="0.7" d="M102.227 208.246L153.125 237.729L205.159 243.021L246.597 219.208L283.115 220.72L314.903 239.052" stroke="white" stroke-width="0.5349" stroke-miterlimit="10"/>
</g>
<g opacity="0.7">
<path opacity="0.7" d="M203.645 232.248L243.759 209.191L286.71 210.892L341.772 242.643" stroke="white" stroke-width="0.5349" stroke-miterlimit="10"/>
</g>
<path opacity="0.7" d="M317.174 237.918C316.039 237.162 314.146 237.162 313.011 237.918C311.876 238.674 311.876 239.619 313.011 240.375C314.146 241.131 316.039 241.131 317.174 240.375C318.309 239.619 318.309 238.674 317.174 237.918Z" fill="white"/>
<path opacity="0.7" d="M344.042 241.509C342.907 240.753 341.015 240.753 339.879 241.509C338.744 242.265 338.744 243.21 339.879 243.966C341.015 244.722 342.907 244.722 344.042 243.966C345.366 243.21 345.366 242.265 344.042 241.509Z" fill="white"/>
<path opacity="0.7" d="M288.981 209.758C287.846 209.002 285.954 209.002 284.818 209.758C283.683 210.514 283.683 211.459 284.818 212.215C285.954 212.971 287.846 212.971 288.981 212.215C290.116 211.459 290.116 210.325 288.981 209.758Z" fill="white"/>
<path opacity="0.7" d="M285.197 219.397C284.062 218.641 282.169 218.641 281.034 219.397C279.899 220.153 279.899 221.098 281.034 221.854C282.169 222.61 284.062 222.61 285.197 221.854C286.332 221.287 286.332 220.153 285.197 219.397Z" fill="white"/>
<path opacity="0.7" d="M207.24 241.698C206.105 240.942 204.213 240.942 203.078 241.698C201.942 242.454 201.942 243.399 203.078 244.155C204.213 244.911 206.105 244.911 207.24 244.155C208.376 243.399 208.376 242.265 207.24 241.698Z" fill="white"/>
<path opacity="0.7" d="M205.727 231.114C204.592 230.358 202.699 230.358 201.564 231.114C200.429 231.87 200.429 232.815 201.564 233.571C202.699 234.327 204.592 234.327 205.727 233.571C206.862 232.815 206.862 231.681 205.727 231.114Z" fill="white"/>
<path opacity="0.7" d="M104.308 207.112C103.173 206.356 101.28 206.356 100.145 207.112C99.0099 207.868 99.0099 208.813 100.145 209.569C101.28 210.325 103.173 210.325 104.308 209.569C105.443 208.813 105.443 207.679 104.308 207.112Z" fill="white"/>
</g>
<g opacity="0.7">
<g opacity="0.7">
<path opacity="0.7" d="M426.729 167.046L375.83 196.34L323.607 201.821L282.358 178.008L245.651 179.52L214.052 197.663" stroke="white" stroke-width="0.5349" stroke-miterlimit="10"/>
</g>
<g opacity="0.7">
<path opacity="0.7" d="M325.121 191.048L285.007 167.802L242.056 169.503L187.184 201.254" stroke="white" stroke-width="0.5349" stroke-miterlimit="10"/>
</g>
<path opacity="0.7" d="M211.592 196.718C212.727 195.962 214.62 195.962 215.755 196.718C216.89 197.474 216.89 198.419 215.755 199.175C214.62 199.931 212.727 199.931 211.592 199.175C210.457 198.419 210.457 197.285 211.592 196.718Z" fill="white"/>
<path opacity="0.7" d="M184.724 200.309C185.859 199.553 187.751 199.553 188.887 200.309C190.022 201.065 190.022 202.01 188.887 202.766C187.751 203.522 185.859 203.522 184.724 202.766C183.588 202.01 183.588 200.876 184.724 200.309Z" fill="white"/>
<path opacity="0.7" d="M239.785 168.558C240.92 167.802 242.812 167.802 243.948 168.558C245.083 169.314 245.083 170.259 243.948 171.015C242.812 171.771 240.92 171.771 239.785 171.015C238.65 170.259 238.65 169.125 239.785 168.558Z" fill="white"/>
<path opacity="0.7" d="M243.569 178.197C244.705 177.441 246.597 177.441 247.732 178.197C248.867 178.953 248.867 179.898 247.732 180.654C246.597 181.41 244.705 181.41 243.569 180.654C242.434 179.898 242.434 178.953 243.569 178.197Z" fill="white"/>
<path opacity="0.7" d="M321.715 200.498C322.85 199.742 324.742 199.742 325.877 200.498C327.013 201.254 327.013 202.199 325.877 202.955C324.742 203.711 322.85 203.711 321.715 202.955C320.579 202.199 320.579 201.065 321.715 200.498Z" fill="white"/>
<path opacity="0.7" d="M323.039 189.725C324.175 188.969 326.067 188.969 327.202 189.725C328.337 190.481 328.337 191.426 327.202 192.182C326.067 192.938 324.175 192.938 323.039 192.182C321.904 191.615 321.904 190.481 323.039 189.725Z" fill="white"/>
<path opacity="0.7" d="M424.647 165.912C425.783 165.156 427.675 165.156 428.81 165.912C429.945 166.668 429.945 167.613 428.81 168.369C427.675 169.125 425.783 169.125 424.647 168.369C423.512 167.613 423.512 166.479 424.647 165.912Z" fill="white"/>
</g>
<g opacity="0.7">
<g opacity="0.7">
<path opacity="0.7" d="M243.759 238.485L192.86 267.967L140.826 273.259L99.3881 249.446L62.8698 250.958L31.0818 269.29" stroke="white" stroke-width="0.5349" stroke-miterlimit="10"/>
</g>
<g opacity="0.7">
<path opacity="0.7" d="M142.34 262.487L102.226 239.43L59.2747 241.131L4.21338 272.881" stroke="white" stroke-width="0.5349" stroke-miterlimit="10"/>
</g>
<path opacity="0.7" d="M28.8112 268.156C29.9465 267.401 31.8386 267.401 32.9739 268.156C34.1092 268.912 34.1092 269.857 32.9739 270.613C31.8386 271.369 29.9465 271.369 28.8112 270.613C27.6759 269.857 27.6759 268.912 28.8112 268.156Z" fill="white"/>
<path opacity="0.7" d="M1.94284 271.747C3.07812 271.18 4.78105 271.18 6.10555 271.747C7.24083 272.503 7.24083 273.448 6.10555 274.204C4.97026 274.96 3.07812 274.96 1.94284 274.204C0.618338 273.448 0.618338 272.503 1.94284 271.747Z" fill="white"/>
<path opacity="0.7" d="M59.0855 242.832C60.7575 242.832 62.113 242.07 62.113 241.131C62.113 240.191 60.7575 239.43 59.0855 239.43C57.4135 239.43 56.0581 240.191 56.0581 241.131C56.0581 242.07 57.4135 242.832 59.0855 242.832Z" fill="white"/>
<path opacity="0.7" d="M60.7885 249.824C61.9238 249.068 63.8159 249.068 64.9512 249.824C66.0865 250.58 66.0865 251.525 64.9512 252.281C63.8159 253.037 61.9238 253.037 60.7885 252.281C59.6532 251.525 59.6532 250.391 60.7885 249.824Z" fill="white"/>
<path opacity="0.7" d="M138.745 271.936C139.88 271.18 141.772 271.18 142.907 271.936C144.043 272.692 144.043 273.637 142.907 274.393C141.772 275.149 139.88 275.149 138.745 274.393C137.609 273.637 137.609 272.503 138.745 271.936Z" fill="white"/>
<path opacity="0.7" d="M140.258 261.353C141.394 260.597 143.286 260.597 144.421 261.353C145.556 262.109 145.556 263.054 144.421 263.81C143.286 264.566 141.394 264.566 140.258 263.81C139.123 263.054 139.123 261.92 140.258 261.353Z" fill="white"/>
<path opacity="0.7" d="M241.677 237.351C242.812 236.595 244.705 236.595 245.84 237.351C246.975 238.107 246.975 239.052 245.84 239.808C244.705 240.564 242.812 240.564 241.677 239.808C240.542 239.052 240.542 238.107 241.677 237.351Z" fill="white"/>
</g>
</g>
</g>
<path d="M296.319 120.669C296.319 128.495 294.06 134.582 290.063 138.061C288.847 139.104 281.375 144.322 279.985 145.018C274.772 147.105 274.251 141.887 266.952 137.713C250.618 128.321 237.412 105.364 237.412 86.5805C237.412 79.4498 232.72 78.4063 236.022 74.754C236.891 73.8844 244.536 68.4928 245.579 67.7972C250.966 64.3188 258.612 64.6666 267.126 69.5364C283.113 78.928 296.319 101.712 296.319 120.669Z" fill="url(#paint0_linear_803_74)"/>
<path d="M289.368 125.365C289.368 144.148 276.162 151.801 259.828 142.409C243.494 133.017 230.288 110.06 230.288 91.2764C230.288 72.493 243.494 64.8405 259.828 74.2322C276.162 83.6239 289.368 106.581 289.368 125.365Z" fill="url(#paint1_linear_803_74)"/>
<path d="M278.275 140.25C288.498 134.343 288.538 115.258 278.365 97.6236C268.192 79.989 251.659 70.4821 241.437 76.3894C231.214 82.2967 231.174 101.381 241.347 119.016C251.519 136.65 268.053 146.157 278.275 140.25Z" stroke="#4D0063" stroke-width="0.6873" stroke-miterlimit="10"/>
<path d="M267.995 99.6245V93.5373L263.13 90.7546V96.3201L258.264 93.5373V87.9719L253.399 85.1892V90.7546L248.533 87.9719V115.625L253.399 118.408V123.973L258.264 126.756V121.191L263.13 123.973V129.539L267.995 132.321V126.234C270.254 126.582 271.992 125.539 272.513 123.104C273.034 120.843 272.513 117.538 270.949 114.582C272.513 113.538 273.208 110.929 272.513 107.973C271.992 105.016 270.254 101.885 267.995 99.6245ZM253.572 96.3201L265.562 103.277C266.953 103.973 267.995 105.886 267.995 107.451C267.995 109.016 266.953 109.538 265.562 108.842L253.572 101.885V96.3201ZM265.562 119.799L253.572 112.842V107.277L265.562 114.234C266.953 114.929 267.995 116.843 267.995 118.408C267.995 119.973 266.953 120.669 265.562 119.799Z" fill="white"/>
<path d="M262.26 395.984L139.581 325.373C134.02 322.242 134.02 305.546 136.279 299.98L251.313 240.326C257.569 236.673 267.3 236.326 272.86 239.456L398.32 303.459C402.838 310.763 400.405 327.981 393.976 331.634L283.981 395.288C277.378 398.767 267.647 399.115 262.26 395.984Z" fill="url(#paint2_linear_803_74)"/>
<path d="M262.26 377.723L139.581 307.111C134.02 303.981 134.715 298.415 141.145 294.763L251.139 231.108C257.395 227.456 267.126 227.108 272.686 230.238L395.366 300.85C400.926 303.981 400.231 309.546 393.802 313.198L283.807 376.853C277.378 380.505 267.647 380.853 262.26 377.723Z" fill="url(#paint3_linear_803_74)"/>
<path d="M262.086 369.548L153.83 307.111C148.269 303.981 148.964 298.415 155.393 294.763L251.487 239.282C257.742 235.63 267.473 235.282 273.034 238.413L381.291 300.85C386.851 303.981 386.156 309.546 379.727 313.198L283.634 368.679C277.204 372.331 267.473 372.679 262.086 369.548Z" fill="url(#paint4_linear_803_74)"/>
<path opacity="0.1" d="M266.431 344.678C312.976 344.678 350.708 326.301 350.708 303.633C350.708 280.964 312.976 262.588 266.431 262.588C219.886 262.588 182.154 280.964 182.154 303.633C182.154 326.301 219.886 344.678 266.431 344.678Z" fill="url(#paint5_radial_803_74)"/>
<path opacity="0.1" d="M318.387 325.547C290.758 339.112 245.753 339.112 218.124 325.547C190.495 311.981 190.495 290.241 218.124 276.675C245.753 263.109 290.758 263.109 318.387 276.675C346.016 290.241 346.016 311.981 318.387 325.547Z" fill="url(#paint6_radial_803_74)"/>
<path d="M207.35 273.718L330.898 274.762V291.98C330.898 301.198 324.817 310.242 312.827 317.198C288.673 331.112 249.576 331.112 225.422 317.198C213.432 310.242 207.35 301.024 207.35 291.98V273.718Z" fill="url(#paint7_linear_803_74)"/>
<path d="M213.432 271.631H211.347V304.395H213.432V271.631Z" fill="#4D0063"/>
<path d="M220.556 271.631H218.471V309.372H220.556V271.631Z" fill="#4D0063"/>
<path d="M227.507 271.631H225.422V309.372H227.507V271.631Z" fill="#4D0063"/>
<path d="M234.632 271.631H232.546V309.372H234.632V271.631Z" fill="#4D0063"/>
<path d="M241.756 271.631H239.671V309.372H241.756V271.631Z" fill="#4D0063"/>
<path d="M248.88 271.631H246.795V309.372H248.88V271.631Z" fill="#4D0063"/>
<path d="M256.005 271.631H253.919V309.372H256.005V271.631Z" fill="#4D0063"/>
<path d="M263.129 271.631H261.044V309.372H263.129V271.631Z" fill="#4D0063"/>
<path d="M270.254 271.631H268.168V309.372H270.254V271.631Z" fill="#4D0063"/>
<path d="M277.378 271.631H275.293V309.372H277.378V271.631Z" fill="#4D0063"/>
<path d="M284.329 271.631H282.244V309.372H284.329V271.631Z" fill="#4D0063"/>
<path d="M291.453 271.631H289.368V309.372H291.453V271.631Z" fill="#4D0063"/>
<path d="M298.578 271.631H296.493V309.372H298.578V271.631Z" fill="#4D0063"/>
<path d="M305.702 271.631H303.617V309.372H305.702V271.631Z" fill="#4D0063"/>
<path d="M312.826 271.631H310.741V309.372H312.826V271.631Z" fill="#4D0063"/>
<path d="M319.951 271.631H317.866V309.372H319.951V271.631Z" fill="#4D0063"/>
<path d="M327.075 271.631H324.99V303.622H327.075V271.631Z" fill="#4D0063"/>
<path d="M269.211 311.111C303.376 311.111 331.072 295.149 331.072 275.458C331.072 255.767 303.376 239.804 269.211 239.804C235.046 239.804 207.35 255.767 207.35 275.458C207.35 295.149 235.046 311.111 269.211 311.111Z" fill="url(#paint8_linear_803_74)"/>
<path d="M269.211 304.85C299.057 304.85 323.253 290.912 323.253 273.718C323.253 256.525 299.057 242.587 269.211 242.587C239.365 242.587 215.169 256.525 215.169 273.718C215.169 290.912 239.365 304.85 269.211 304.85Z" stroke="#4D0063" stroke-width="1.1865" stroke-miterlimit="10"/>
<path d="M262.608 254.413L254.788 249.891L247.664 254.065L254.788 258.24L247.664 262.414L240.54 258.24L233.415 262.414L240.54 266.588L233.415 270.762L269.211 291.458L276.336 287.284L283.46 291.458L290.584 287.284L283.46 283.11L290.584 278.936L297.709 283.11L304.833 278.936L297.014 274.414C299.273 271.805 298.925 268.675 296.493 266.24C293.886 263.805 289.368 262.066 284.329 262.066C284.155 259.109 281.375 256.5 277.031 254.935C272.513 253.196 267.126 253.022 262.608 254.413ZM247.664 270.588L265.562 260.327C267.473 259.109 270.775 259.109 272.686 260.327C274.598 261.544 274.598 263.283 272.686 264.501L254.788 274.762L247.664 270.588ZM286.935 272.675L269.037 282.936L261.913 278.762L279.811 268.501C281.722 267.283 285.024 267.283 286.935 268.501C289.021 269.544 289.021 271.457 286.935 272.675Z" fill="white"/>
<path d="M207.35 253.544L330.898 254.587V271.805C330.898 281.023 324.817 290.067 312.827 297.024C288.673 310.937 249.576 310.937 225.422 297.024C213.432 290.067 207.35 280.849 207.35 271.805V253.544Z" fill="url(#paint9_linear_803_74)"/>
<path d="M213.432 251.283H211.347V304.395H213.432V251.283Z" fill="#4D0063"/>
<path d="M220.556 251.283H218.471V312.347H220.556V251.283Z" fill="#4D0063"/>
<path d="M227.507 251.283H225.422V317.192H227.507V251.283Z" fill="#4D0063"/>
<path d="M234.632 251.283H232.546V320.803H234.632V251.283Z" fill="#4D0063"/>
<path d="M241.756 251.283H239.671V323.314H241.756V251.283Z" fill="#4D0063"/>
<path d="M248.88 251.283H246.795V325.208H248.88V251.283Z" fill="#4D0063"/>
<path d="M256.005 251.283H253.919V326.485H256.005V251.283Z" fill="#4D0063"/>
<path d="M263.129 251.283H261.044V327.634H263.129V251.283Z" fill="#4D0063"/>
<path d="M270.254 251.283H268.168V327.634H270.254V251.283Z" fill="#4D0063"/>
<path d="M277.378 251.283H275.293V327.634H277.378V251.283Z" fill="#4D0063"/>
<path d="M284.329 251.283H282.244V326.418H284.329V251.283Z" fill="#4D0063"/>
<path d="M291.453 251.283H289.368V325.225H291.453V251.283Z" fill="#4D0063"/>
<path d="M298.578 251.283H296.493V323.288H298.578V251.283Z" fill="#4D0063"/>
<path d="M305.702 251.283H303.617V320.904H305.702V251.283Z" fill="#4D0063"/>
<path d="M312.826 251.283H310.741V317.278H312.826V251.283Z" fill="#4D0063"/>
<path d="M319.951 251.283H317.866V312.509H319.951V251.283Z" fill="#4D0063"/>
<path d="M327.075 251.283H324.99V304.463H327.075V251.283Z" fill="#4D0063"/>
<path d="M269.211 290.763C303.376 290.763 331.072 274.8 331.072 255.109C331.072 235.418 303.376 219.455 269.211 219.455C235.046 219.455 207.35 235.418 207.35 255.109C207.35 274.8 235.046 290.763 269.211 290.763Z" fill="url(#paint10_linear_803_74)"/>
<path d="M269.211 284.675C299.057 284.675 323.253 270.737 323.253 253.544C323.253 236.35 299.057 222.412 269.211 222.412C239.365 222.412 215.169 236.35 215.169 253.544C215.169 270.737 239.365 284.675 269.211 284.675Z" stroke="#4D0063" stroke-width="1.1865" stroke-miterlimit="10"/>
<path d="M262.608 234.065L254.788 229.543L247.664 233.717L254.788 237.891L247.664 242.065L240.54 237.891L233.415 242.065L240.54 246.239L233.415 250.413L269.211 271.11L276.336 266.936L283.46 271.11L290.584 266.936L283.46 262.761L290.584 258.587L297.709 262.761L304.833 258.587L297.014 254.065C299.273 251.457 298.925 248.326 296.493 245.891C293.886 243.456 289.368 241.717 284.329 241.717C284.155 238.76 281.375 236.152 277.031 234.586C272.513 233.021 267.126 232.847 262.608 234.065ZM247.664 250.239L265.562 239.978C267.473 238.76 270.775 238.76 272.686 239.978C274.598 241.195 274.598 242.935 272.686 244.152L254.788 254.413L247.664 250.239ZM286.935 252.326L269.037 262.588L261.913 258.413L279.811 248.152C281.722 246.935 285.024 246.935 286.935 248.152C289.021 249.37 289.021 251.109 286.935 252.326Z" fill="white"/>
<path d="M207.35 233.195L330.898 234.239V251.457C330.898 260.674 324.817 269.718 312.827 276.675C288.673 290.589 249.576 290.589 225.422 276.675C213.432 269.718 207.35 260.5 207.35 251.457V233.195Z" fill="url(#paint11_linear_803_74)"/>
<path d="M213.432 230.934H211.347V289.023H213.432V230.934Z" fill="#4D0063"/>
<path d="M220.556 230.934H218.471V289.023H220.556V230.934Z" fill="#4D0063"/>
<path d="M227.507 230.934H225.422V289.023H227.507V230.934Z" fill="#4D0063"/>
<path d="M234.632 230.934H232.546V289.023H234.632V230.934Z" fill="#4D0063"/>
<path d="M241.756 230.934H239.671V289.023H241.756V230.934Z" fill="#4D0063"/>
<path d="M248.88 230.934H246.795V289.023H248.88V230.934Z" fill="#4D0063"/>
<path d="M256.005 230.934H253.919V289.023H256.005V230.934Z" fill="#4D0063"/>
<path d="M263.129 230.934H261.044V289.023H263.129V230.934Z" fill="#4D0063"/>
<path d="M270.254 230.934H268.168V289.023H270.254V230.934Z" fill="#4D0063"/>
<path d="M277.378 230.934H275.293V289.023H277.378V230.934Z" fill="#4D0063"/>
<path d="M284.329 230.934H282.244V289.023H284.329V230.934Z" fill="#4D0063"/>
<path d="M291.453 230.934H289.368V289.023H291.453V230.934Z" fill="#4D0063"/>
<path d="M298.578 230.934H296.493V289.023H298.578V230.934Z" fill="#4D0063"/>
<path d="M305.702 230.934H303.617V289.023H305.702V230.934Z" fill="#4D0063"/>
<path d="M312.826 230.934H310.741V289.023H312.826V230.934Z" fill="#4D0063"/>
<path d="M319.951 230.934H317.866V289.023H319.951V230.934Z" fill="#4D0063"/>
<path d="M327.075 230.934H324.99V289.023H327.075V230.934Z" fill="#4D0063"/>
<path d="M269.211 270.414C303.376 270.414 331.072 254.451 331.072 234.76C331.072 215.069 303.376 199.107 269.211 199.107C235.046 199.107 207.35 215.069 207.35 234.76C207.35 254.451 235.046 270.414 269.211 270.414Z" fill="url(#paint12_linear_803_74)"/>
<path d="M307.266 255.283C286.24 267.457 252.008 267.457 230.982 255.283C209.956 243.109 209.956 223.282 230.982 211.107C252.008 198.933 286.24 198.933 307.266 211.107C328.466 223.282 328.466 243.109 307.266 255.283Z" stroke="#4D0063" stroke-width="1.1865" stroke-miterlimit="10"/>
<path d="M262.608 213.89L254.788 209.368L247.664 213.542L254.788 217.716L247.664 221.89L240.54 217.716L233.415 221.89L240.54 226.064L233.415 230.238L269.211 250.935L276.336 246.761L283.46 250.935L290.584 246.761L283.46 242.587L290.584 238.413L297.709 242.587L304.833 238.413L297.014 233.891C299.273 231.282 298.925 228.151 296.493 225.717C293.886 223.282 289.368 221.542 284.329 221.542C284.155 218.586 281.375 215.977 277.031 214.412C272.513 212.673 267.126 212.499 262.608 213.89ZM247.664 229.891L265.562 219.629C267.473 218.412 270.775 218.412 272.686 219.629C274.598 220.847 274.598 222.586 272.686 223.803L254.788 234.065L247.664 229.891ZM286.935 231.978L269.037 242.239L261.913 238.065L279.811 227.804C281.722 226.586 285.024 226.586 286.935 227.804C289.021 229.021 289.021 230.934 286.935 231.978Z" fill="white"/>
<path d="M207.35 212.846L330.898 213.89V231.108C330.898 240.326 324.817 249.37 312.827 256.326C288.673 270.24 249.576 270.24 225.422 256.326C213.432 249.37 207.35 240.152 207.35 231.108V212.846Z" fill="url(#paint13_linear_803_74)"/>
<path d="M213.432 210.759H211.347V268.849H213.432V210.759Z" fill="#4D0063"/>
<path d="M220.556 210.759H218.471V268.849H220.556V210.759Z" fill="#4D0063"/>
<path d="M227.507 210.759H225.422V268.849H227.507V210.759Z" fill="#4D0063"/>
<path d="M234.632 210.759H232.546V268.849H234.632V210.759Z" fill="#4D0063"/>
<path d="M241.756 210.759H239.671V268.849H241.756V210.759Z" fill="#4D0063"/>
<path d="M248.88 210.759H246.795V268.849H248.88V210.759Z" fill="#4D0063"/>
<path d="M256.005 210.759H253.919V268.849H256.005V210.759Z" fill="#4D0063"/>
<path d="M263.129 210.759H261.044V268.849H263.129V210.759Z" fill="#4D0063"/>
<path d="M270.254 210.759H268.168V268.849H270.254V210.759Z" fill="#4D0063"/>
<path d="M277.378 210.759H275.293V268.849H277.378V210.759Z" fill="#4D0063"/>
<path d="M284.329 210.759H282.244V268.849H284.329V210.759Z" fill="#4D0063"/>
<path d="M291.453 210.759H289.368V268.849H291.453V210.759Z" fill="#4D0063"/>
<path d="M298.578 210.759H296.493V268.849H298.578V210.759Z" fill="#4D0063"/>
<path d="M305.702 210.759H303.617V268.849H305.702V210.759Z" fill="#4D0063"/>
<path d="M312.826 210.759H310.741V268.849H312.826V210.759Z" fill="#4D0063"/>
<path d="M319.951 210.759H317.866V268.849H319.951V210.759Z" fill="#4D0063"/>
<path d="M327.075 210.759H324.99V268.849H327.075V210.759Z" fill="#4D0063"/>
<path d="M312.827 239.804C288.673 253.718 249.575 253.718 225.422 239.804C201.268 225.89 201.268 203.281 225.422 189.367C249.575 175.454 288.673 175.454 312.827 189.367C336.98 203.281 336.98 225.89 312.827 239.804Z" fill="url(#paint14_linear_803_74)"/>
<path d="M269.211 243.978C299.057 243.978 323.253 230.04 323.253 212.846C323.253 195.653 299.057 181.715 269.211 181.715C239.365 181.715 215.169 195.653 215.169 212.846C215.169 230.04 239.365 243.978 269.211 243.978Z" stroke="#4D0063" stroke-width="1.1865" stroke-miterlimit="10"/>
<path d="M262.608 193.541L254.788 189.019L247.664 193.193L254.788 197.368L247.664 201.542L240.54 197.368L233.415 201.542L240.54 205.716L233.415 209.89L269.211 230.586L276.336 226.412L283.46 230.586L290.584 226.412L283.46 222.238L290.584 218.064L297.709 222.238L304.833 218.064L297.014 213.542C299.273 210.933 298.925 207.803 296.493 205.368C293.886 202.933 289.368 201.194 284.329 201.194C284.155 198.237 281.375 195.628 277.031 194.063C272.513 192.324 267.126 192.324 262.608 193.541ZM247.664 209.716L265.562 199.455C267.473 198.237 270.775 198.237 272.686 199.455C274.598 200.672 274.598 202.411 272.686 203.629L254.788 213.89L247.664 209.716ZM286.935 211.803L269.037 222.064L261.913 217.89L279.811 207.629C281.722 206.411 285.024 206.411 286.935 207.629C289.021 208.672 289.021 210.585 286.935 211.803Z" fill="white"/>
<path d="M207.35 192.672L330.898 193.715V210.933C330.898 220.151 324.817 229.195 312.827 236.152C288.673 250.065 249.576 250.065 225.422 236.152C213.432 229.195 207.35 219.977 207.35 210.933V192.672Z" fill="url(#paint15_linear_803_74)"/>
<path d="M213.432 190.411H211.347V248.5H213.432V190.411Z" fill="#4D0063"/>
<path d="M220.556 190.411H218.471V248.5H220.556V190.411Z" fill="#4D0063"/>
<path d="M227.507 190.411H225.422V248.5H227.507V190.411Z" fill="#4D0063"/>
<path d="M234.631 190.411H232.546V248.5H234.631V190.411Z" fill="#4D0063"/>
<path d="M241.756 190.411H239.67V248.5H241.756V190.411Z" fill="#4D0063"/>
<path d="M248.88 190.411H246.795V248.5H248.88V190.411Z" fill="#4D0063"/>
<path d="M256.005 190.411H253.919V248.5H256.005V190.411Z" fill="#4D0063"/>
<path d="M263.129 190.411H261.044V248.5H263.129V190.411Z" fill="#4D0063"/>
<path d="M270.254 190.411H268.168V248.5H270.254V190.411Z" fill="#4D0063"/>
<path d="M277.378 190.411H275.293V248.5H277.378V190.411Z" fill="#4D0063"/>
<path d="M284.328 190.411H282.243V248.5H284.328V190.411Z" fill="#4D0063"/>
<path d="M291.453 190.411H289.368V248.5H291.453V190.411Z" fill="#4D0063"/>
<path d="M298.578 190.411H296.493V248.5H298.578V190.411Z" fill="#4D0063"/>
<path d="M305.702 190.411H303.617V248.5H305.702V190.411Z" fill="#4D0063"/>
<path d="M312.826 190.411H310.741V248.5H312.826V190.411Z" fill="#4D0063"/>
<path d="M319.951 190.411H317.866V248.5H319.951V190.411Z" fill="#4D0063"/>
<path d="M327.075 190.411H324.99V248.5H327.075V190.411Z" fill="#4D0063"/>
<path d="M312.826 219.455C288.673 233.369 249.575 233.369 225.422 219.455C201.268 205.542 201.268 182.932 225.422 169.019C249.575 155.105 288.673 155.105 312.826 169.019C336.98 182.932 336.98 205.542 312.826 219.455Z" fill="url(#paint16_linear_803_74)"/>
<path d="M269.211 223.803C299.057 223.803 323.253 209.865 323.253 192.672C323.253 175.478 299.057 161.54 269.211 161.54C239.365 161.54 215.169 175.478 215.169 192.672C215.169 209.865 239.365 223.803 269.211 223.803Z" stroke="#4D0063" stroke-width="1.1865" stroke-miterlimit="10"/>
<path d="M262.608 173.193L254.788 168.671L247.664 172.845L254.788 177.019L247.664 181.193L240.54 177.019L233.415 181.193L240.54 185.367L233.415 189.541L269.211 210.238L276.336 206.064L283.46 210.238L290.584 206.064L283.46 201.889L290.584 197.715L297.709 201.889L304.833 197.715L297.014 193.193C299.273 190.585 298.925 187.454 296.493 185.019C293.886 182.584 289.368 180.845 284.329 180.845C284.155 177.889 281.375 175.28 277.031 173.714C272.513 172.149 267.126 171.975 262.608 173.193ZM247.664 189.367L265.562 179.106C267.473 177.889 270.775 177.889 272.686 179.106C274.598 180.323 274.598 182.063 272.686 183.28L254.788 193.541L247.664 189.367ZM286.935 191.454L269.037 201.716L261.913 197.541L279.811 187.28C281.722 186.063 285.024 186.063 286.935 187.28C289.021 188.498 289.021 190.237 286.935 191.454Z" fill="white"/>
<g opacity="0.5">
<path opacity="0.5" d="M334.895 114.929H334.548C334.374 114.929 334.374 114.756 334.374 114.756V114.408C334.374 114.234 334.548 114.234 334.548 114.234H334.895C335.069 114.234 335.069 114.408 335.069 114.408V114.756C335.069 114.756 335.069 114.929 334.895 114.929Z" fill="white"/>
<path opacity="0.5" d="M331.246 166.41H330.898C330.725 166.41 330.725 166.236 330.725 166.236V165.888C330.725 165.714 330.898 165.714 330.898 165.714H331.246C331.42 165.714 331.42 165.888 331.42 165.888V166.236C331.42 166.236 331.42 166.41 331.246 166.41Z" fill="white"/>
<path opacity="0.5" d="M307.614 155.279H307.266C307.092 155.279 307.092 155.105 307.092 155.105V154.757C307.092 154.583 307.266 154.583 307.266 154.583H307.614C307.787 154.583 307.787 154.757 307.787 154.757V154.931C307.961 155.105 307.787 155.279 307.614 155.279Z" fill="white"/>
<path opacity="0.5" d="M291.801 158.931H291.454C291.28 158.931 291.28 158.757 291.28 158.757V158.409C291.28 158.236 291.454 158.236 291.454 158.236H291.801C291.975 158.236 291.975 158.409 291.975 158.409V158.757C292.149 158.757 291.975 158.931 291.801 158.931Z" fill="white"/>
<path opacity="0.5" d="M283.634 142.583L283.287 142.409C283.113 142.409 283.113 142.235 283.113 142.061L283.287 141.713C283.287 141.539 283.46 141.539 283.634 141.539L283.982 141.713C284.155 141.713 284.155 141.887 284.155 142.061L283.982 142.409C283.982 142.583 283.808 142.583 283.634 142.583Z" fill="white"/>
<path opacity="0.5" d="M271.122 173.714L270.775 173.541C270.601 173.541 270.601 173.367 270.601 173.193L270.775 172.845C270.775 172.671 270.949 172.671 271.122 172.671L271.47 172.845C271.644 172.845 271.644 173.019 271.644 173.193L271.47 173.541C271.47 173.714 271.296 173.714 271.122 173.714Z" fill="white"/>
<path opacity="0.5" d="M252.182 128.843L251.834 128.669C251.661 128.669 251.661 128.495 251.661 128.321L251.834 127.973C251.834 127.8 252.008 127.8 252.182 127.8L252.529 127.973C252.703 127.973 252.703 128.147 252.703 128.321L252.529 128.669C252.356 128.843 252.182 128.843 252.182 128.843Z" fill="white"/>
<path opacity="0.5" d="M220.209 142.931L219.862 142.757C219.688 142.757 219.688 142.583 219.688 142.409L219.862 142.061C219.862 141.887 220.035 141.887 220.209 141.887L220.557 142.061C220.73 142.061 220.73 142.235 220.73 142.409L220.557 142.757C220.383 142.931 220.383 143.105 220.209 142.931Z" fill="white"/>
<path opacity="0.5" d="M235.848 189.715L235.5 189.541C235.327 189.541 235.327 189.367 235.327 189.193L235.5 188.845C235.5 188.672 235.674 188.672 235.848 188.672L236.196 188.845C236.369 188.845 236.369 189.019 236.369 189.193L236.196 189.541C236.022 189.715 236.022 189.889 235.848 189.715Z" fill="white"/>
<path opacity="0.5" d="M241.756 157.888L241.409 157.714C241.235 157.714 241.235 157.54 241.235 157.366L241.409 157.018C241.409 156.844 241.582 156.844 241.756 156.844L242.104 157.018C242.277 157.018 242.277 157.192 242.277 157.366L242.104 157.714C242.104 157.888 241.93 157.888 241.756 157.888Z" fill="white"/>
<path opacity="0.5" d="M220.209 119.277L219.862 119.104C219.688 119.104 219.688 118.93 219.688 118.756L219.862 118.408C219.862 118.234 220.035 118.234 220.209 118.234L220.557 118.408C220.73 118.408 220.73 118.582 220.73 118.756L220.557 119.104C220.383 119.277 220.383 119.277 220.209 119.277Z" fill="white"/>
<path opacity="0.5" d="M194.839 150.409L194.491 150.235C194.318 150.235 194.318 150.061 194.318 149.887L194.491 149.54C194.491 149.366 194.665 149.366 194.839 149.366L195.186 149.54C195.36 149.54 195.36 149.713 195.36 149.887L195.186 150.235C195.186 150.409 195.013 150.409 194.839 150.409Z" fill="white"/>
<path opacity="0.5" d="M194.839 126.756L194.491 126.582C194.318 126.582 194.318 126.408 194.318 126.234L194.491 125.886C194.491 125.713 194.665 125.712 194.839 125.712L195.186 125.886C195.36 125.886 195.36 126.06 195.36 126.234L195.186 126.582C195.186 126.756 195.013 126.756 194.839 126.756Z" fill="white"/>
<path opacity="0.5" d="M350.708 142.583L350.36 142.409C350.187 142.409 350.187 142.235 350.187 142.061L350.36 141.713C350.36 141.539 350.534 141.539 350.708 141.539L351.055 141.713C351.229 141.713 351.229 141.887 351.229 142.061L351.055 142.409C350.882 142.583 350.708 142.583 350.708 142.583Z" fill="white"/>
<path opacity="0.5" d="M352.793 126.756L352.446 126.582C352.272 126.582 352.272 126.408 352.272 126.234L352.446 125.886C352.446 125.713 352.619 125.712 352.793 125.712L353.141 125.886C353.315 125.886 353.315 126.06 353.315 126.234L353.141 126.582C352.967 126.756 352.793 126.756 352.793 126.756Z" fill="white"/>
<path opacity="0.5" d="M321.689 149.192L321.341 149.018C321.167 149.018 321.167 148.844 321.167 148.67L321.341 148.322C321.341 148.148 321.515 148.148 321.689 148.148L322.036 148.322C322.21 148.322 322.21 148.496 322.21 148.67L322.036 149.018C321.863 149.018 321.689 149.192 321.689 149.192Z" fill="white"/>
<path opacity="0.5" d="M308.657 121.538L308.309 121.365C308.135 121.365 308.135 121.191 308.135 121.017L308.309 120.669C308.309 120.495 308.483 120.495 308.657 120.495L309.004 120.669C309.178 120.669 309.178 120.843 309.178 121.017L309.004 121.365C308.83 121.538 308.657 121.538 308.657 121.538Z" fill="white"/>
<path opacity="0.5" d="M274.076 201.889H273.729C273.555 201.889 273.555 201.716 273.555 201.716V201.368C273.555 201.194 273.729 201.194 273.729 201.194H274.076C274.25 201.194 274.25 201.368 274.25 201.368V201.716C274.25 201.889 274.25 201.889 274.076 201.889Z" fill="white"/>
<path opacity="0.5" d="M313.522 176.323L313.174 176.149C313 176.149 313 175.975 313 175.801L313.174 175.454C313.174 175.28 313.348 175.28 313.522 175.28L313.869 175.454C314.043 175.454 314.043 175.628 314.043 175.801L313.869 176.149C313.869 176.323 313.696 176.323 313.522 176.323Z" fill="white"/>
<path opacity="0.5" d="M220.904 163.627L220.556 163.453C220.383 163.453 220.383 163.279 220.383 163.105L220.556 162.757C220.556 162.584 220.73 162.584 220.904 162.584L221.251 162.757C221.425 162.757 221.425 162.931 221.425 163.105L221.251 163.453C221.251 163.627 221.078 163.627 220.904 163.627Z" fill="white"/>
<path opacity="0.5" d="M289.368 192.15L289.02 191.976C288.847 191.976 288.847 191.802 288.847 191.628L289.02 191.28C289.02 191.106 289.194 191.106 289.368 191.106L289.716 191.28C289.889 191.28 289.889 191.454 289.889 191.628L289.716 191.976C289.542 192.15 289.368 192.15 289.368 192.15Z" fill="white"/>
<path opacity="0.5" d="M297.362 132.321L297.014 132.148C296.84 132.148 296.84 131.974 296.84 131.8L297.014 131.452C297.014 131.278 297.188 131.278 297.362 131.278L297.709 131.452C297.883 131.452 297.883 131.626 297.883 131.8L297.709 132.148C297.535 132.321 297.535 132.495 297.362 132.321Z" fill="white"/>
</g>
<g opacity="0.5">
<path opacity="0.5" d="M289.716 29.1869H289.368C289.194 29.1869 289.194 29.013 289.194 29.013V28.6652C289.194 28.4912 289.368 28.4912 289.368 28.4912H289.716C289.889 28.4912 289.889 28.6652 289.889 28.6652V29.013C289.889 29.1869 289.716 29.1869 289.716 29.1869Z" fill="white"/>
<path opacity="0.5" d="M285.893 80.8412H285.545C285.372 80.8412 285.372 80.6672 285.372 80.6672V80.1455C285.372 79.9716 285.545 79.9716 285.545 79.9716H285.893C286.067 79.9716 286.067 80.1455 286.067 80.1455V80.4933C286.24 80.6672 286.067 80.8412 285.893 80.8412Z" fill="white"/>
<path opacity="0.5" d="M263.998 54.9271H263.65C263.477 54.9271 263.477 54.7531 263.477 54.7531V54.4053C263.477 54.2314 263.65 54.2314 263.65 54.2314H263.998C264.172 54.2314 264.172 54.4053 264.172 54.4053V54.7531L263.998 54.9271Z" fill="white"/>
<path opacity="0.5" d="M246.621 73.1887H246.274C246.1 73.1887 246.1 73.0147 246.1 73.0147V72.6669C246.1 72.493 246.274 72.493 246.274 72.493H246.621C246.795 72.493 246.795 72.6669 246.795 72.6669V73.0147C246.795 73.1887 246.621 73.1887 246.621 73.1887Z" fill="white"/>
<path opacity="0.5" d="M232.025 41.0135L231.678 40.8396C231.504 40.8396 231.504 40.6657 231.504 40.4917L231.678 40.1439C231.678 39.97 231.851 39.97 232.025 39.97L232.373 40.1439C232.547 40.1439 232.547 40.3178 232.547 40.4917L232.373 40.8396C232.199 41.0135 232.199 41.1874 232.025 41.0135Z" fill="white"/>
<path opacity="0.5" d="M225.943 88.1458L225.596 87.9719C225.422 87.9719 225.422 87.798 225.422 87.6241L225.596 87.2762C225.596 87.1023 225.769 87.1023 225.943 87.1023L226.291 87.2762C226.464 87.2762 226.464 87.4501 226.464 87.6241L226.291 87.9719C226.117 88.1458 226.117 88.1458 225.943 88.1458Z" fill="white"/>
<path opacity="0.5" d="M206.829 43.2744L206.481 43.1005C206.307 43.1005 206.307 42.9266 206.307 42.7527L206.481 42.4048C206.481 42.2309 206.655 42.2309 206.829 42.2309L207.176 42.4048C207.35 42.4048 207.35 42.5787 207.35 42.7527L207.176 43.1005C207.002 43.2744 207.002 43.2744 206.829 43.2744Z" fill="white"/>
<path opacity="0.5" d="M190.669 104.146L190.321 103.973C190.147 103.973 190.147 103.799 190.147 103.625L190.321 103.277C190.321 103.103 190.495 103.103 190.669 103.103L191.016 103.277C191.19 103.277 191.19 103.451 191.19 103.625L191.016 103.973C190.842 104.146 190.669 104.146 190.669 104.146Z" fill="white"/>
<path opacity="0.5" d="M196.576 72.1451L196.229 71.9712C196.055 71.9712 196.055 71.7973 196.055 71.6234L196.229 71.2755C196.229 71.1016 196.403 71.1016 196.576 71.1016L196.924 71.2755C197.098 71.2755 197.098 71.4495 197.098 71.6234L196.924 71.9712C196.75 72.1451 196.75 72.3191 196.576 72.1451Z" fill="white"/>
<path opacity="0.5" d="M305.355 56.8402L305.007 56.6663C304.833 56.6663 304.833 56.4924 304.833 56.3185L305.007 55.9706C305.007 55.7967 305.181 55.7967 305.355 55.7967L305.702 55.9706C305.876 55.9706 305.876 56.1445 305.876 56.3185L305.702 56.6663C305.702 56.8402 305.529 57.0141 305.355 56.8402Z" fill="white"/>
<path opacity="0.5" d="M319.603 88.6675L319.256 88.4936C319.082 88.4936 319.082 88.3197 319.082 88.1458L319.256 87.7979C319.256 87.624 319.43 87.624 319.603 87.624L319.951 87.7979C320.125 87.7979 320.125 87.9719 320.125 88.1458L319.951 88.4936C319.777 88.6675 319.603 88.8415 319.603 88.6675Z" fill="white"/>
<path opacity="0.5" d="M352.793 85.7109L352.445 85.537C352.271 85.537 352.271 85.3631 352.271 85.1892L352.445 84.8413C352.445 84.6674 352.619 84.6674 352.793 84.6674L353.14 84.8413C353.314 84.8413 353.314 85.0153 353.314 85.1892L353.14 85.537C353.14 85.7109 352.967 85.8849 352.793 85.7109Z" fill="white"/>
<path opacity="0.5" d="M374.862 75.9714L374.514 75.7975C374.34 75.7975 374.34 75.6236 374.34 75.4496L374.514 75.1018C374.514 74.9279 374.688 74.9279 374.862 74.9279L375.209 75.1018C375.383 75.1018 375.383 75.2757 375.383 75.4496L375.209 75.7975C375.035 75.9714 374.862 75.9714 374.862 75.9714Z" fill="white"/>
<path opacity="0.5" d="M228.897 116.321H228.55C228.376 116.321 228.376 116.147 228.376 116.147V115.799C228.376 115.625 228.55 115.625 228.55 115.625H228.897C229.071 115.625 229.071 115.799 229.071 115.799V116.147L228.897 116.321Z" fill="white"/>
<path opacity="0.5" d="M268.343 90.5807L267.995 90.4068C267.821 90.4068 267.821 90.2328 267.821 90.0589L267.995 89.7111C267.995 89.5372 268.169 89.5372 268.343 89.5372L268.69 89.7111C268.864 89.7111 268.864 89.885 268.864 90.0589L268.69 90.4068C268.516 90.5807 268.343 90.7546 268.343 90.5807Z" fill="white"/>
<path opacity="0.5" d="M175.724 77.8845L175.377 77.7106C175.203 77.7106 175.203 77.5367 175.203 77.3628L175.377 77.0149C175.377 76.841 175.551 76.841 175.724 76.841L176.072 77.0149C176.246 77.0149 176.246 77.1888 176.246 77.3628L176.072 77.7106C175.898 77.8845 175.724 77.8845 175.724 77.8845Z" fill="white"/>
<path opacity="0.5" d="M244.015 106.581L243.667 106.407C243.494 106.407 243.494 106.233 243.494 106.06L243.667 105.712C243.667 105.538 243.841 105.538 244.015 105.538L244.362 105.712C244.536 105.712 244.536 105.886 244.536 106.06L244.362 106.407C244.189 106.581 244.189 106.581 244.015 106.581Z" fill="white"/>
<path opacity="0.5" d="M283.113 49.1877L282.765 49.0138C282.591 49.0138 282.591 48.8399 282.591 48.666L282.765 48.3181C282.765 48.1442 282.939 48.1442 283.113 48.1442L283.46 48.3181C283.634 48.3181 283.634 48.4921 283.634 48.666L283.46 49.0138C283.286 49.1877 283.286 49.1877 283.113 49.1877Z" fill="white"/>
</g>
<path opacity="0.8" d="M312.827 219.803C288.847 233.717 249.749 233.717 225.769 219.803C213.258 212.499 207.176 202.933 207.698 193.367C192.58 164.671 170.685 137.539 130.371 65.1883C196.229 -10.4669 299.968 -27.511 399.884 53.0139C410.136 61.3621 339.413 175.106 330.899 193.367C331.42 202.933 325.512 212.673 312.827 219.803Z" fill="url(#paint17_linear_803_74)"/>
<defs>
<linearGradient id="paint0_linear_803_74" x1="265.592" y1="97.7377" x2="265.592" y2="175.856" gradientUnits="userSpaceOnUse">
<stop offset="0.0873016" stop-color="#EB5757"/>
<stop offset="0.9709" stop-color="#3C53D7"/>
</linearGradient>
<linearGradient id="paint1_linear_803_74" x1="259.837" y1="100.936" x2="259.837" y2="175.345" gradientUnits="userSpaceOnUse">
<stop offset="0.0873016" stop-color="#EB5757"/>
<stop offset="0.9709" stop-color="#3C53D7"/>
</linearGradient>
<linearGradient id="paint2_linear_803_74" x1="414.258" y1="363.771" x2="156.35" y2="282.856" gradientUnits="userSpaceOnUse">
<stop stop-color="#000053"/>
<stop offset="0.5425" stop-color="#23007F"/>
<stop offset="1" stop-color="#4F34D7"/>
</linearGradient>
<linearGradient id="paint3_linear_803_74" x1="267.516" y1="289.277" x2="267.516" y2="437.44" gradientUnits="userSpaceOnUse">
<stop offset="0.0873016" stop-color="#EB5757"/>
<stop offset="0.9709" stop-color="#3C53D7"/>
</linearGradient>
<linearGradient id="paint4_linear_803_74" x1="220.64" y1="245.493" x2="331.63" y2="383.797" gradientUnits="userSpaceOnUse">
<stop stop-color="#3C53D7"/>
<stop offset="1" stop-color="#1A1B6E"/>
</linearGradient>
<radialGradient id="paint5_radial_803_74" cx="0" cy="0" r="1" gradientUnits="userSpaceOnUse" gradientTransform="translate(266.377 303.686) scale(68.7558 58.0582)">
<stop stop-color="#2F3C9E"/>
<stop offset="0.1211" stop-color="#253184"/>
<stop offset="0.2995" stop-color="#192364"/>
<stop offset="0.4722" stop-color="#11194D"/>
<stop offset="0.635" stop-color="#0C1340"/>
<stop offset="0.7778" stop-color="#0A113B"/>
<stop offset="1" stop-color="#000020"/>
</radialGradient>
<radialGradient id="paint6_radial_803_74" cx="0" cy="0" r="1" gradientUnits="userSpaceOnUse" gradientTransform="translate(268.249 301.118) scale(57.8878 48.8811)">
<stop stop-color="#2F3C9E"/>
<stop offset="0.1211" stop-color="#253184"/>
<stop offset="0.2995" stop-color="#192364"/>
<stop offset="0.4722" stop-color="#11194D"/>
<stop offset="0.635" stop-color="#0C1340"/>
<stop offset="0.7778" stop-color="#0A113B"/>
<stop offset="1" stop-color="#000020"/>
</radialGradient>
<linearGradient id="paint7_linear_803_74" x1="269.144" y1="295.452" x2="269.144" y2="348.095" gradientUnits="userSpaceOnUse">
<stop offset="0.0873016" stop-color="#EB5757"/>
<stop offset="0.9709" stop-color="#3C53D7"/>
</linearGradient>
<linearGradient id="paint8_linear_803_74" x1="269.231" y1="268.548" x2="269.231" y2="338.173" gradientUnits="userSpaceOnUse">
<stop offset="0.0873016" stop-color="#EB5757"/>
<stop offset="0.9709" stop-color="#3C53D7"/>
</linearGradient>
<linearGradient id="paint9_linear_803_74" x1="269.144" y1="275.277" x2="269.144" y2="327.92" gradientUnits="userSpaceOnUse">
<stop offset="0.0873016" stop-color="#EB5757"/>
<stop offset="0.9709" stop-color="#3C53D7"/>
</linearGradient>
<linearGradient id="paint10_linear_803_74" x1="269.231" y1="248.2" x2="269.231" y2="317.824" gradientUnits="userSpaceOnUse">
<stop offset="0.0873016" stop-color="#EB5757"/>
<stop offset="0.9709" stop-color="#3C53D7"/>
</linearGradient>
<linearGradient id="paint11_linear_803_74" x1="269.144" y1="254.928" x2="269.144" y2="307.572" gradientUnits="userSpaceOnUse">
<stop offset="0.0873016" stop-color="#EB5757"/>
<stop offset="0.9709" stop-color="#3C53D7"/>
</linearGradient>
<linearGradient id="paint12_linear_803_74" x1="269.231" y1="227.851" x2="269.231" y2="297.476" gradientUnits="userSpaceOnUse">
<stop offset="0.0873016" stop-color="#EB5757"/>
<stop offset="0.9709" stop-color="#3C53D7"/>
</linearGradient>
<linearGradient id="paint13_linear_803_74" x1="269.144" y1="234.58" x2="269.144" y2="287.223" gradientUnits="userSpaceOnUse">
<stop offset="0.0873016" stop-color="#EB5757"/>
<stop offset="0.9709" stop-color="#3C53D7"/>
</linearGradient>
<linearGradient id="paint14_linear_803_74" x1="269.144" y1="207.676" x2="269.144" y2="277.301" gradientUnits="userSpaceOnUse">
<stop offset="0.0873016" stop-color="#EB5757"/>
<stop offset="0.9709" stop-color="#3C53D7"/>
</linearGradient>
<linearGradient id="paint15_linear_803_74" x1="269.144" y1="214.405" x2="269.144" y2="267.048" gradientUnits="userSpaceOnUse">
<stop offset="0.0873016" stop-color="#EB5757"/>
<stop offset="0.9709" stop-color="#3C53D7"/>
</linearGradient>
<linearGradient id="paint16_linear_803_74" x1="269.144" y1="187.328" x2="269.144" y2="256.952" gradientUnits="userSpaceOnUse">
<stop offset="0.0873016" stop-color="#EB5757"/>
<stop offset="0.9709" stop-color="#3C53D7"/>
</linearGradient>
<linearGradient id="paint17_linear_803_74" x1="263.484" y1="19.5265" x2="275.599" y2="243.463" gradientUnits="userSpaceOnUse">
<stop stop-color="#F1EBF9" stop-opacity="0"/>
<stop offset="0.252" stop-color="#F2EEFA" stop-opacity="0"/>
<stop offset="0.2989" stop-color="#F3F0FA" stop-opacity="0"/>
<stop offset="0.4873" stop-color="#EDF9FD" stop-opacity="0.137"/>
<stop offset="0.5741" stop-color="#E9FFFF" stop-opacity="0.2"/>
<stop offset="1" stop-color="#E6FFFF"/>
</linearGradient>
</defs>
</svg>
