<svg width="124" height="31" viewBox="0 0 124 31" fill="none" xmlns="http://www.w3.org/2000/svg">
<path d="M1.22314 13.9786L1.82555 13.4689" stroke="#FF1A1A" stroke-width="1.5" stroke-miterlimit="10" stroke-linecap="round"/>
<path d="M1.82568 13.4688L2.42809 9.92664" stroke="#FF1A1A" stroke-width="1.5" stroke-miterlimit="10" stroke-linecap="round"/>
<path d="M2.42773 9.92664L3.03014 10.2464" stroke="#FF1A1A" stroke-width="1.5" stroke-miterlimit="10" stroke-linecap="round"/>
<path d="M3.03027 10.2464L3.63268 8.20544" stroke="#FF1A1A" stroke-width="1.5" stroke-miterlimit="10" stroke-linecap="round"/>
<path d="M3.63281 8.20532L4.23522 9.6279" stroke="#FF1A1A" stroke-width="1.5" stroke-miterlimit="10" stroke-linecap="round"/>
<path d="M4.23535 9.62805L4.83776 11.1777" stroke="#FF1A1A" stroke-width="1.5" stroke-miterlimit="10" stroke-linecap="round"/>
<path d="M4.83789 11.1775L5.4403 10.5974" stroke="#FF1A1A" stroke-width="1.5" stroke-miterlimit="10" stroke-linecap="round"/>
<path d="M5.43994 10.5975L6.04235 7.7655" stroke="#FF1A1A" stroke-width="1.5" stroke-miterlimit="10" stroke-linecap="round"/>
<path d="M6.04248 7.76548L6.64489 7.14526" stroke="#FF1A1A" stroke-width="1.5" stroke-miterlimit="10" stroke-linecap="round"/>
<path d="M6.64502 7.14526L7.24743 8.61927" stroke="#FF1A1A" stroke-width="1.5" stroke-miterlimit="10" stroke-linecap="round"/>
<path d="M7.24707 8.61914L7.84948 12.1531" stroke="#FF1A1A" stroke-width="1.5" stroke-miterlimit="10" stroke-linecap="round"/>
<path d="M7.84961 12.1532L8.45202 14.9361" stroke="#FF1A1A" stroke-width="1.5" stroke-miterlimit="10" stroke-linecap="round"/>
<path d="M8.45215 14.9361L9.05456 13.8123" stroke="#FF1A1A" stroke-width="1.5" stroke-miterlimit="10" stroke-linecap="round"/>
<path d="M9.05469 13.8124L9.6571 13.1479" stroke="#FF1A1A" stroke-width="1.5" stroke-miterlimit="10" stroke-linecap="round"/>
<path d="M9.65723 13.1478L10.2596 16.3662" stroke="#FF1A1A" stroke-width="1.5" stroke-miterlimit="10" stroke-linecap="round"/>
<path d="M10.2593 16.3662L10.8617 18.0006" stroke="#FF1A1A" stroke-width="1.5" stroke-miterlimit="10" stroke-linecap="round"/>
<path d="M10.8618 18.0006L11.4642 20.0047" stroke="#FF1A1A" stroke-width="1.5" stroke-miterlimit="10" stroke-linecap="round"/>
<path d="M11.4639 20.0048L12.0663 23.6045" stroke="#FF1A1A" stroke-width="1.5" stroke-miterlimit="10" stroke-linecap="round"/>
<path d="M12.0664 23.6045L12.6688 22.3047" stroke="#FF1A1A" stroke-width="1.5" stroke-miterlimit="10" stroke-linecap="round"/>
<path d="M12.6689 22.3048L13.2714 22.468" stroke="#FF1A1A" stroke-width="1.5" stroke-miterlimit="10" stroke-linecap="round"/>
<path d="M13.2715 22.4679L13.8739 23.98" stroke="#FF1A1A" stroke-width="1.5" stroke-miterlimit="10" stroke-linecap="round"/>
<path d="M13.874 23.98L14.4764 21.8107" stroke="#FF1A1A" stroke-width="1.5" stroke-miterlimit="10" stroke-linecap="round"/>
<path d="M14.4761 21.8107L15.0785 22.9136" stroke="#FF1A1A" stroke-width="1.5" stroke-miterlimit="10" stroke-linecap="round"/>
<path d="M15.0786 22.9138L15.681 21.7808" stroke="#FF1A1A" stroke-width="1.5" stroke-miterlimit="10" stroke-linecap="round"/>
<path d="M15.6812 21.7806L16.2836 22.498" stroke="#FF1A1A" stroke-width="1.5" stroke-miterlimit="10" stroke-linecap="round"/>
<path d="M16.2832 22.498L16.8856 24.01" stroke="#FF1A1A" stroke-width="1.5" stroke-miterlimit="10" stroke-linecap="round"/>
<path d="M16.8857 24.0099L17.4882 22.7386" stroke="#FF1A1A" stroke-width="1.5" stroke-miterlimit="10" stroke-linecap="round"/>
<path d="M17.4883 22.7385L18.0907 19.3881" stroke="#FF1A1A" stroke-width="1.5" stroke-miterlimit="10" stroke-linecap="round"/>
<path d="M18.0908 19.3882L18.6932 24.9176" stroke="#FF1A1A" stroke-width="1.5" stroke-miterlimit="10" stroke-linecap="round"/>
<path d="M18.6934 24.9175L19.2958 23.6082" stroke="#FF1A1A" stroke-width="1.5" stroke-miterlimit="10" stroke-linecap="round"/>
<path d="M19.2954 23.6082L19.8978 21.0312" stroke="#FF1A1A" stroke-width="1.5" stroke-miterlimit="10" stroke-linecap="round"/>
<path d="M19.8979 21.0312L20.5004 18.9353" stroke="#FF1A1A" stroke-width="1.5" stroke-miterlimit="10" stroke-linecap="round"/>
<path d="M20.5005 18.9352L21.1029 18.8214" stroke="#FF1A1A" stroke-width="1.5" stroke-miterlimit="10" stroke-linecap="round"/>
<path d="M21.1025 18.8215L21.7049 20.1123" stroke="#FF1A1A" stroke-width="1.5" stroke-miterlimit="10" stroke-linecap="round"/>
<path d="M21.7051 20.1123L22.3075 23.1693" stroke="#FF1A1A" stroke-width="1.5" stroke-miterlimit="10" stroke-linecap="round"/>
<path d="M22.3076 23.1694L22.91 22.5277" stroke="#FF1A1A" stroke-width="1.5" stroke-miterlimit="10" stroke-linecap="round"/>
<path d="M22.9102 22.5277L23.5126 23.2266" stroke="#FF1A1A" stroke-width="1.5" stroke-miterlimit="10" stroke-linecap="round"/>
<path d="M23.5122 23.2266L24.1146 22.13" stroke="#FF1A1A" stroke-width="1.5" stroke-miterlimit="10" stroke-linecap="round"/>
<path d="M24.1147 22.1299L24.7172 18.9052" stroke="#FF1A1A" stroke-width="1.5" stroke-miterlimit="10" stroke-linecap="round"/>
<path d="M24.7173 18.9053L25.3197 20.667" stroke="#FF1A1A" stroke-width="1.5" stroke-miterlimit="10" stroke-linecap="round"/>
<path d="M25.3193 20.667L25.9217 20.1375" stroke="#FF1A1A" stroke-width="1.5" stroke-miterlimit="10" stroke-linecap="round"/>
<path d="M25.9219 20.1375L26.5243 18.1075" stroke="#FF1A1A" stroke-width="1.5" stroke-miterlimit="10" stroke-linecap="round"/>
<path d="M26.5244 18.1075L27.1268 20.4334" stroke="#FF1A1A" stroke-width="1.5" stroke-miterlimit="10" stroke-linecap="round"/>
<path d="M27.127 20.4333L27.7294 18.2469" stroke="#FF1A1A" stroke-width="1.5" stroke-miterlimit="10" stroke-linecap="round"/>
<path d="M27.7295 18.2469L28.3319 18.8313" stroke="#FF1A1A" stroke-width="1.5" stroke-miterlimit="10" stroke-linecap="round"/>
<path d="M28.3315 18.8314L28.934 18.5192" stroke="#FF1A1A" stroke-width="1.5" stroke-miterlimit="10" stroke-linecap="round"/>
<path d="M28.9341 18.519L29.5365 17.4659" stroke="#FF1A1A" stroke-width="1.5" stroke-miterlimit="10" stroke-linecap="round"/>
<path d="M29.5366 17.466L30.139 15.2072" stroke="#FF1A1A" stroke-width="1.5" stroke-miterlimit="10" stroke-linecap="round"/>
<path d="M30.1387 15.207L30.7411 16.5643" stroke="#FF1A1A" stroke-width="1.5" stroke-miterlimit="10" stroke-linecap="round"/>
<path d="M30.7412 16.5643L31.3436 16.9844" stroke="#FF1A1A" stroke-width="1.5" stroke-miterlimit="10" stroke-linecap="round"/>
<path d="M31.3438 16.9845L31.9462 18.2496" stroke="#FF1A1A" stroke-width="1.5" stroke-miterlimit="10" stroke-linecap="round"/>
<path d="M31.9463 18.2496L32.5487 16.688" stroke="#FF1A1A" stroke-width="1.5" stroke-miterlimit="10" stroke-linecap="round"/>
<path d="M32.5483 16.688L33.1507 21.6271" stroke="#FF1A1A" stroke-width="1.5" stroke-miterlimit="10" stroke-linecap="round"/>
<path d="M33.1509 21.6271L33.7533 22.2975" stroke="#FF1A1A" stroke-width="1.5" stroke-miterlimit="10" stroke-linecap="round"/>
<path d="M33.7534 22.2974L34.3558 20.6119" stroke="#FF1A1A" stroke-width="1.5" stroke-miterlimit="10" stroke-linecap="round"/>
<path d="M34.3555 20.6121L34.9579 20.6739" stroke="#FF1A1A" stroke-width="1.5" stroke-miterlimit="10" stroke-linecap="round"/>
<path d="M34.958 20.674L35.5604 19.2454" stroke="#FF1A1A" stroke-width="1.5" stroke-miterlimit="10" stroke-linecap="round"/>
<path d="M35.5605 19.2452L36.163 16.8334" stroke="#FF1A1A" stroke-width="1.5" stroke-miterlimit="10" stroke-linecap="round"/>
<path d="M36.1631 16.8336L36.7655 15.8898" stroke="#FF1A1A" stroke-width="1.5" stroke-miterlimit="10" stroke-linecap="round"/>
<path d="M36.7656 15.8896L37.368 14.4302" stroke="#FF1A1A" stroke-width="1.5" stroke-miterlimit="10" stroke-linecap="round"/>
<path d="M37.3677 14.4302L37.9701 17.1984" stroke="#FF1A1A" stroke-width="1.5" stroke-miterlimit="10" stroke-linecap="round"/>
<path d="M37.9702 17.1985L38.5726 15.9353" stroke="#FF1A1A" stroke-width="1.5" stroke-miterlimit="10" stroke-linecap="round"/>
<path d="M38.5728 15.9352L39.1752 17.3627" stroke="#FF1A1A" stroke-width="1.5" stroke-miterlimit="10" stroke-linecap="round"/>
<path d="M39.1748 17.3628L39.7772 18.7881" stroke="#FF1A1A" stroke-width="1.5" stroke-miterlimit="10" stroke-linecap="round"/>
<path d="M39.7773 18.7881L40.3798 17.1028" stroke="#FF1A1A" stroke-width="1.5" stroke-miterlimit="10" stroke-linecap="round"/>
<path d="M40.3799 17.1028L40.9823 18.8429" stroke="#FF1A1A" stroke-width="1.5" stroke-miterlimit="10" stroke-linecap="round"/>
<path d="M40.9824 18.8429L41.5848 19.6864" stroke="#FF1A1A" stroke-width="1.5" stroke-miterlimit="10" stroke-linecap="round"/>
<path d="M41.5845 19.6863L42.1869 19.9937" stroke="#FF1A1A" stroke-width="1.5" stroke-miterlimit="10" stroke-linecap="round"/>
<path d="M42.187 19.9938L42.7894 20.399" stroke="#FF1A1A" stroke-width="1.5" stroke-miterlimit="10" stroke-linecap="round"/>
<path d="M42.7896 20.399L43.392 22.644" stroke="#FF1A1A" stroke-width="1.5" stroke-miterlimit="10" stroke-linecap="round"/>
<path d="M43.3916 22.6439L43.994 29.0239" stroke="#FF1A1A" stroke-width="1.5" stroke-miterlimit="10" stroke-linecap="round"/>
<path d="M43.9941 29.0239L44.5966 30.1913" stroke="#FF1A1A" stroke-width="1.5" stroke-miterlimit="10" stroke-linecap="round"/>
<path d="M44.5967 30.1912L45.1991 27.566" stroke="#FF1A1A" stroke-width="1.5" stroke-miterlimit="10" stroke-linecap="round"/>
<path d="M45.1992 27.5662L45.8016 29.4301" stroke="#FF1A1A" stroke-width="1.5" stroke-miterlimit="10" stroke-linecap="round"/>
<path d="M45.8018 29.43L46.4042 24.8993" stroke="#FF1A1A" stroke-width="1.5" stroke-miterlimit="10" stroke-linecap="round"/>
<path d="M46.4038 24.8993L47.0062 19.0347" stroke="#FF1A1A" stroke-width="1.5" stroke-miterlimit="10" stroke-linecap="round"/>
<path d="M47.0063 19.0348L47.6088 16.4724" stroke="#FF1A1A" stroke-width="1.5" stroke-miterlimit="10" stroke-linecap="round"/>
<path d="M47.6089 16.4724L48.2113 15.9248" stroke="#FF1A1A" stroke-width="1.5" stroke-miterlimit="10" stroke-linecap="round"/>
<path d="M48.2109 15.9247L48.8133 15.4106" stroke="#FF1A1A" stroke-width="1.5" stroke-miterlimit="10" stroke-linecap="round"/>
<path d="M48.8135 15.4105L49.4159 17.357" stroke="#FF1A1A" stroke-width="1.5" stroke-miterlimit="10" stroke-linecap="round"/>
<path d="M49.416 17.3572L50.0184 15.8247" stroke="#FF1A1A" stroke-width="1.5" stroke-miterlimit="10" stroke-linecap="round"/>
<path d="M50.0186 15.8247L50.621 15.0637" stroke="#FF1A1A" stroke-width="1.5" stroke-miterlimit="10" stroke-linecap="round"/>
<path d="M50.6211 15.0637L51.2235 17.5933" stroke="#FF1A1A" stroke-width="1.5" stroke-miterlimit="10" stroke-linecap="round"/>
<path d="M51.2231 17.5933L51.8256 18.3017" stroke="#FF1A1A" stroke-width="1.5" stroke-miterlimit="10" stroke-linecap="round"/>
<path d="M51.8257 18.3016L52.4281 19.0106" stroke="#FF1A1A" stroke-width="1.5" stroke-miterlimit="10" stroke-linecap="round"/>
<path d="M52.4277 19.0107L53.0301 18.895" stroke="#FF1A1A" stroke-width="1.5" stroke-miterlimit="10" stroke-linecap="round"/>
<path d="M53.0303 18.8949L53.6327 21.6708" stroke="#FF1A1A" stroke-width="1.5" stroke-miterlimit="10" stroke-linecap="round"/>
<path d="M53.6328 21.6709L54.2352 24.1821" stroke="#FF1A1A" stroke-width="1.5" stroke-miterlimit="10" stroke-linecap="round"/>
<path d="M54.2354 24.182L54.8378 24.9094" stroke="#FF1A1A" stroke-width="1.5" stroke-miterlimit="10" stroke-linecap="round"/>
<path d="M54.8379 24.9094L55.4403 25.4673" stroke="#FF1A1A" stroke-width="1.5" stroke-miterlimit="10" stroke-linecap="round"/>
<path d="M55.4399 25.4673L56.0423 21.4489" stroke="#FF1A1A" stroke-width="1.5" stroke-miterlimit="10" stroke-linecap="round"/>
<path d="M56.0425 21.4487L56.6449 21.5288" stroke="#FF1A1A" stroke-width="1.5" stroke-miterlimit="10" stroke-linecap="round"/>
<path d="M56.645 21.5291L57.2474 22.4958" stroke="#FF1A1A" stroke-width="1.5" stroke-miterlimit="10" stroke-linecap="round"/>
<path d="M57.2471 22.4957L57.8495 13.5999" stroke="#FF1A1A" stroke-width="1.5" stroke-miterlimit="10" stroke-linecap="round"/>
<path d="M57.8496 13.5999L58.452 0.922974" stroke="#FF1A1A" stroke-width="1.5" stroke-miterlimit="10" stroke-linecap="round"/>
<path d="M58.4521 0.922974L59.0546 4.6368" stroke="#FF1A1A" stroke-width="1.5" stroke-miterlimit="10" stroke-linecap="round"/>
<path d="M59.0547 4.63672L59.6571 7.46141" stroke="#FF1A1A" stroke-width="1.5" stroke-miterlimit="10" stroke-linecap="round"/>
<path d="M59.6572 7.46145L60.2596 3.48865" stroke="#FF1A1A" stroke-width="1.5" stroke-miterlimit="10" stroke-linecap="round"/>
<path d="M60.2593 3.48865L60.8617 6.89649" stroke="#FF1A1A" stroke-width="1.5" stroke-miterlimit="10" stroke-linecap="round"/>
<path d="M60.8618 6.89654L61.4642 4.43201" stroke="#FF1A1A" stroke-width="1.5" stroke-miterlimit="10" stroke-linecap="round"/>
<path d="M61.4639 4.43188L62.0663 10.8383" stroke="#FF1A1A" stroke-width="1.5" stroke-miterlimit="10" stroke-linecap="round"/>
<path d="M62.0664 10.8383L62.6688 9.16699" stroke="#FF1A1A" stroke-width="1.5" stroke-miterlimit="10" stroke-linecap="round"/>
<path d="M62.6689 9.16702L63.2714 8.02942" stroke="#FF1A1A" stroke-width="1.5" stroke-miterlimit="10" stroke-linecap="round"/>
<path d="M63.2715 8.0294L63.8739 7.02222" stroke="#FF1A1A" stroke-width="1.5" stroke-miterlimit="10" stroke-linecap="round"/>
<path d="M63.874 7.02234L64.4764 8.12986" stroke="#FF1A1A" stroke-width="1.5" stroke-miterlimit="10" stroke-linecap="round"/>
<path d="M64.4761 8.12969L65.0785 8.11414" stroke="#FF1A1A" stroke-width="1.5" stroke-miterlimit="10" stroke-linecap="round"/>
<path d="M65.0786 8.11423L65.681 6.71411" stroke="#FF1A1A" stroke-width="1.5" stroke-miterlimit="10" stroke-linecap="round"/>
<path d="M65.6812 6.71411L66.2836 7.2126" stroke="#FF1A1A" stroke-width="1.5" stroke-miterlimit="10" stroke-linecap="round"/>
<path d="M66.2832 7.21265L66.8856 9.93618" stroke="#FF1A1A" stroke-width="1.5" stroke-miterlimit="10" stroke-linecap="round"/>
<path d="M66.8857 9.93606L67.4882 9.74316" stroke="#FF1A1A" stroke-width="1.5" stroke-miterlimit="10" stroke-linecap="round"/>
<path d="M67.4883 9.74329L68.0907 8.10754" stroke="#FF1A1A" stroke-width="1.5" stroke-miterlimit="10" stroke-linecap="round"/>
<path d="M68.0908 8.10742L68.6932 8.11099" stroke="#FF1A1A" stroke-width="1.5" stroke-miterlimit="10" stroke-linecap="round"/>
<path d="M68.6934 8.11096L69.2958 11.4803" stroke="#FF1A1A" stroke-width="1.5" stroke-miterlimit="10" stroke-linecap="round"/>
<path d="M69.2954 11.4802L69.8978 11.2462" stroke="#FF1A1A" stroke-width="1.5" stroke-miterlimit="10" stroke-linecap="round"/>
<path d="M69.8979 11.2463L70.5004 11.6032" stroke="#FF1A1A" stroke-width="1.5" stroke-miterlimit="10" stroke-linecap="round"/>
<path d="M70.5005 11.6032L71.1029 11.2295" stroke="#FF1A1A" stroke-width="1.5" stroke-miterlimit="10" stroke-linecap="round"/>
<path d="M71.1025 11.2295L71.7049 9.65686" stroke="#FF1A1A" stroke-width="1.5" stroke-miterlimit="10" stroke-linecap="round"/>
<path d="M71.7051 9.65688L72.3075 7.43005" stroke="#FF1A1A" stroke-width="1.5" stroke-miterlimit="10" stroke-linecap="round"/>
<path d="M72.3076 7.43001L72.91 5.75867" stroke="#FF1A1A" stroke-width="1.5" stroke-miterlimit="10" stroke-linecap="round"/>
<path d="M72.9102 5.75879L73.5126 8.93939" stroke="#FF1A1A" stroke-width="1.5" stroke-miterlimit="10" stroke-linecap="round"/>
<path d="M73.5122 8.9394L74.1146 7.75769" stroke="#FF1A1A" stroke-width="1.5" stroke-miterlimit="10" stroke-linecap="round"/>
<path d="M74.1147 7.75769L74.7172 10.7984" stroke="#FF1A1A" stroke-width="1.5" stroke-miterlimit="10" stroke-linecap="round"/>
<path d="M74.7173 10.7983L75.3197 11.6882" stroke="#FF1A1A" stroke-width="1.5" stroke-miterlimit="10" stroke-linecap="round"/>
<path d="M75.3193 11.6881L75.9217 11.6056" stroke="#FF1A1A" stroke-width="1.5" stroke-miterlimit="10" stroke-linecap="round"/>
<path d="M75.9219 11.6058L76.5243 9.61316" stroke="#FF1A1A" stroke-width="1.5" stroke-miterlimit="10" stroke-linecap="round"/>
<path d="M76.5244 9.61307L77.1268 9.09167" stroke="#FF1A1A" stroke-width="1.5" stroke-miterlimit="10" stroke-linecap="round"/>
<path d="M77.127 9.09167L77.7294 10.3092" stroke="#FF1A1A" stroke-width="1.5" stroke-miterlimit="10" stroke-linecap="round"/>
<path d="M77.7295 10.3092L78.3319 11.0871" stroke="#FF1A1A" stroke-width="1.5" stroke-miterlimit="10" stroke-linecap="round"/>
<path d="M78.3315 11.0871L78.934 10.3616" stroke="#FF1A1A" stroke-width="1.5" stroke-miterlimit="10" stroke-linecap="round"/>
<path d="M78.9341 10.3615L79.5365 11.0751" stroke="#FF1A1A" stroke-width="1.5" stroke-miterlimit="10" stroke-linecap="round"/>
<path d="M79.5366 11.0752L80.139 16.2335" stroke="#FF1A1A" stroke-width="1.5" stroke-miterlimit="10" stroke-linecap="round"/>
<path d="M80.1387 16.2334L80.7411 15.51" stroke="#FF1A1A" stroke-width="1.5" stroke-miterlimit="10" stroke-linecap="round"/>
<path d="M80.7412 15.5101L81.3436 14.6232" stroke="#FF1A1A" stroke-width="1.5" stroke-miterlimit="10" stroke-linecap="round"/>
<path d="M81.3438 14.623L81.9462 15.3633" stroke="#FF1A1A" stroke-width="1.5" stroke-miterlimit="10" stroke-linecap="round"/>
<path d="M81.9463 15.3635L82.5487 14.6304" stroke="#FF1A1A" stroke-width="1.5" stroke-miterlimit="10" stroke-linecap="round"/>
<path d="M82.5483 14.6304L83.1508 16.873" stroke="#FF1A1A" stroke-width="1.5" stroke-miterlimit="10" stroke-linecap="round"/>
<path d="M83.1509 16.8729L83.7533 14.6265" stroke="#FF1A1A" stroke-width="1.5" stroke-miterlimit="10" stroke-linecap="round"/>
<path d="M83.7534 14.6264L84.3558 13.5958" stroke="#FF1A1A" stroke-width="1.5" stroke-miterlimit="10" stroke-linecap="round"/>
<path d="M84.3555 13.5958L84.9579 12.897" stroke="#FF1A1A" stroke-width="1.5" stroke-miterlimit="10" stroke-linecap="round"/>
<path d="M84.958 12.897L85.5604 13.9182" stroke="#FF1A1A" stroke-width="1.5" stroke-miterlimit="10" stroke-linecap="round"/>
<path d="M85.5605 13.9182L86.1629 12.229" stroke="#FF1A1A" stroke-width="1.5" stroke-miterlimit="10" stroke-linecap="round"/>
<path d="M86.1631 12.2291L86.7655 11.3026" stroke="#FF1A1A" stroke-width="1.5" stroke-miterlimit="10" stroke-linecap="round"/>
<path d="M86.7656 11.3026L87.368 13.155" stroke="#FF1A1A" stroke-width="1.5" stroke-miterlimit="10" stroke-linecap="round"/>
<path d="M87.3677 13.1549L87.9701 11.9192" stroke="#FF1A1A" stroke-width="1.5" stroke-miterlimit="10" stroke-linecap="round"/>
<path d="M87.9702 11.9193L88.5726 10.5022" stroke="#FF1A1A" stroke-width="1.5" stroke-miterlimit="10" stroke-linecap="round"/>
<path d="M88.5728 10.5022L89.1752 10.6388" stroke="#FF1A1A" stroke-width="1.5" stroke-miterlimit="10" stroke-linecap="round"/>
<path d="M89.1748 10.6387L89.7772 10.2715" stroke="#FF1A1A" stroke-width="1.5" stroke-miterlimit="10" stroke-linecap="round"/>
<path d="M89.7773 10.2716L90.3797 9.52832" stroke="#FF1A1A" stroke-width="1.5" stroke-miterlimit="10" stroke-linecap="round"/>
<path d="M90.3799 9.52832L90.9823 9.36523" stroke="#FF1A1A" stroke-width="1.5" stroke-miterlimit="10" stroke-linecap="round"/>
<path d="M90.9824 9.36511L91.5848 10.5448" stroke="#FF1A1A" stroke-width="1.5" stroke-miterlimit="10" stroke-linecap="round"/>
<path d="M91.585 10.5448L92.1874 11.2302" stroke="#FF1A1A" stroke-width="1.5" stroke-miterlimit="10" stroke-linecap="round"/>
<path d="M92.187 11.2303L92.7894 8.75537" stroke="#FF1A1A" stroke-width="1.5" stroke-miterlimit="10" stroke-linecap="round"/>
<path d="M92.7896 8.75537L93.392 10.3831" stroke="#FF1A1A" stroke-width="1.5" stroke-miterlimit="10" stroke-linecap="round"/>
<path d="M93.3916 10.3831L93.994 11.248" stroke="#FF1A1A" stroke-width="1.5" stroke-miterlimit="10" stroke-linecap="round"/>
<path d="M93.9941 11.248L94.5966 10.9542" stroke="#FF1A1A" stroke-width="1.5" stroke-miterlimit="10" stroke-linecap="round"/>
<path d="M94.5967 10.9544L95.1991 10.3918" stroke="#FF1A1A" stroke-width="1.5" stroke-miterlimit="10" stroke-linecap="round"/>
<path d="M95.1992 10.3918L95.8016 11.0846" stroke="#FF1A1A" stroke-width="1.5" stroke-miterlimit="10" stroke-linecap="round"/>
<path d="M95.8018 11.0846L96.4042 11.2084" stroke="#FF1A1A" stroke-width="1.5" stroke-miterlimit="10" stroke-linecap="round"/>
<path d="M96.4038 11.2084L97.0062 14.0488" stroke="#FF1A1A" stroke-width="1.5" stroke-miterlimit="10" stroke-linecap="round"/>
<path d="M97.0063 14.0488L97.6088 14.6557" stroke="#FF1A1A" stroke-width="1.5" stroke-miterlimit="10" stroke-linecap="round"/>
<path d="M97.6089 14.6557L98.2113 14.179" stroke="#FF1A1A" stroke-width="1.5" stroke-miterlimit="10" stroke-linecap="round"/>
<path d="M98.2109 14.1788L98.8134 11.9219" stroke="#FF1A1A" stroke-width="1.5" stroke-miterlimit="10" stroke-linecap="round"/>
<path d="M98.8135 11.9218L99.4159 11.4825" stroke="#FF1A1A" stroke-width="1.5" stroke-miterlimit="10" stroke-linecap="round"/>
<path d="M99.416 11.4827L100.018 12.6563" stroke="#FF1A1A" stroke-width="1.5" stroke-miterlimit="10" stroke-linecap="round"/>
<path d="M100.019 12.6563L100.621 11.0735" stroke="#FF1A1A" stroke-width="1.5" stroke-miterlimit="10" stroke-linecap="round"/>
<path d="M100.621 11.0734L101.224 11.4347" stroke="#FF1A1A" stroke-width="1.5" stroke-miterlimit="10" stroke-linecap="round"/>
<path d="M123.777 20.269C123.777 20.6669 123.619 21.0484 123.338 21.3297C123.057 21.611 122.675 21.769 122.277 21.769C121.88 21.769 121.498 21.611 121.217 21.3297C120.935 21.0484 120.777 20.6669 120.777 20.269C120.777 19.8712 120.935 19.4897 121.217 19.2084C121.498 18.9271 121.88 18.769 122.277 18.769C122.675 18.769 123.057 18.9271 123.338 19.2084C123.619 19.4897 123.777 19.8712 123.777 20.269ZM123.777 15.269C123.777 15.6669 123.619 16.0484 123.338 16.3297C123.057 16.611 122.675 16.769 122.277 16.769C121.88 16.769 121.498 16.611 121.217 16.3297C120.935 16.0484 120.777 15.6669 120.777 15.269C120.777 14.8712 120.935 14.4897 121.217 14.2084C121.498 13.9271 121.88 13.769 122.277 13.769C122.675 13.769 123.057 13.9271 123.338 14.2084C123.619 14.4897 123.777 14.8712 123.777 15.269ZM123.777 10.269C123.777 10.6669 123.619 11.0484 123.338 11.3297C123.057 11.611 122.675 11.769 122.277 11.769C121.88 11.769 121.498 11.611 121.217 11.3297C120.935 11.0484 120.777 10.6669 120.777 10.269C120.777 9.87122 120.935 9.48969 121.217 9.20838C121.498 8.92708 121.88 8.76904 122.277 8.76904C122.675 8.76904 123.057 8.92708 123.338 9.20838C123.619 9.48969 123.777 9.87122 123.777 10.269Z" fill="white"/>
</svg>
